<?xml version="1.0" standalone="no"?>
<!DOCTYPE svg PUBLIC "-//W3C//DTD SVG 20010904//EN"
 "http://www.w3.org/TR/2001/REC-SVG-20010904/DTD/svg10.dtd">
<svg version="1.0" xmlns="http://www.w3.org/2000/svg"
 width="2481.000000pt" height="3508.000000pt" viewBox="0 0 2481.000000 3508.000000"
 preserveAspectRatio="xMidYMid meet">

<g transform="translate(0.000000,3508.000000) scale(0.100000,-0.100000)"
fill="#000000" stroke="none">
<path d="M4445 17933 c-665 -26 -1070 -53 -1630 -109 -865 -86 -1839 -233
-2720 -412 l-90 -18 -3 -8697 -2 -8697 12405 0 12405 0 0 8085 c0 6495 -2
8085 -13 8085 -7 0 -71 -16 -142 -36 -218 -60 -746 -189 -1010 -248 -2644
-585 -5319 -661 -7940 -225 -1494 248 -2879 631 -4422 1223 -1656 634 -3351
966 -5352 1046 -220 9 -1287 11 -1486 3z"/>
</g>
</svg>
