<?xml version="1.0" standalone="no"?>
<!DOCTYPE svg PUBLIC "-//W3C//DTD SVG 20010904//EN"
 "http://www.w3.org/TR/2001/REC-SVG-20010904/DTD/svg10.dtd">
<svg version="1.0" xmlns="http://www.w3.org/2000/svg"
 width="2433.000000pt" height="1406.000000pt" viewBox="0 0 2433.000000 1406.000000"
 preserveAspectRatio="xMidYMid meet">

<g transform="translate(0.000000,1406.000000) scale(0.100000,-0.100000)"
fill="#000000" stroke="none">
<path d="M12745 14049 c-956 -68 -1857 -480 -2535 -1159 -171 -171 -317 -336
-307 -347 4 -3 47 33 97 80 239 228 559 447 900 618 851 424 1864 527 2801
285 1342 -347 2380 -1357 2694 -2619 77 -313 100 -525 92 -880 -7 -337 -41
-562 -133 -872 -116 -393 -350 -833 -620 -1170 -106 -132 -323 -356 -454 -469
-848 -733 -1977 -1066 -3125 -920 -1004 127 -1944 650 -2543 1415 -42 54 -78
94 -80 90 -2 -5 21 -49 49 -97 262 -445 631 -856 1056 -1175 214 -160 511
-336 741 -439 68 -30 118 -56 110 -59 -7 -2 -49 -21 -94 -42 l-81 -38 -68
-153 c-87 -197 -130 -276 -205 -368 -54 -68 -60 -80 -60 -122 0 -78 44 -95
159 -59 120 37 259 164 393 356 76 109 150 246 167 312 l11 42 88 -30 c510
-175 1188 -239 1751 -164 823 109 1553 441 2166 986 1225 1089 1662 2825 1101
4371 -343 944 -1054 1747 -1945 2197 -214 108 -343 162 -566 236 -495 165
-1034 232 -1560 194z"/>
<path d="M6763 13033 c-15 -92 -8 -724 11 -913 83 -839 290 -1837 632 -3050
146 -516 412 -1371 435 -1395 6 -6 8 20 4 70 -3 44 -37 717 -75 1495 -38 778
-71 1446 -74 1483 l-5 68 141 -198 c187 -262 373 -508 595 -787 101 -125 183
-230 183 -232 0 -2 -144 -4 -320 -4 -176 0 -320 -3 -320 -7 0 -5 208 -80 462
-168 254 -88 469 -167 479 -175 9 -8 63 -67 120 -130 151 -168 552 -572 719
-724 734 -667 1343 -1014 2125 -1209 361 -90 656 -128 1010 -128 243 0 371 9
575 42 1072 171 1936 879 2519 2064 84 169 178 401 168 411 -3 4 -473 15
-1044 26 l-1038 19 -34 42 c-61 75 -208 213 -303 284 -315 236 -709 398 -1153
472 -141 24 -344 46 -351 38 -3 -3 28 -81 69 -173 139 -314 234 -587 225 -647
l-3 -22 -1672 -3 -1672 -2 -133 157 c-547 645 -1069 1308 -1366 1735 -222 318
-245 360 -755 1350 -72 142 -135 258 -139 258 -4 0 -10 -21 -15 -47z m8897
-3740 c0 -13 -115 -212 -187 -323 -328 -504 -718 -907 -1156 -1195 l-118 -77
-40 17 c-124 57 -266 272 -364 555 -33 95 -103 367 -120 463 -3 20 -9 37 -13
37 -10 0 -55 -76 -75 -126 -9 -23 -21 -81 -28 -129 -30 -212 48 -514 220 -852
39 -76 67 -141 63 -145 -4 -3 -65 -27 -137 -53 -267 -96 -542 -150 -827 -161
-797 -32 -1685 362 -2588 1149 -155 135 -553 535 -674 677 l-98 115 318 3
c176 2 1404 13 2729 26 2747 26 3095 29 3095 19z"/>
<path d="M14400 8881 c-117 -62 -117 -236 1 -296 44 -23 130 -19 170 8 39 26
79 97 79 142 0 50 -40 117 -85 142 -50 28 -118 30 -165 4z"/>
<path d="M1040 6115 c-94 -15 -234 -57 -293 -87 -66 -33 -122 -93 -156 -167
-51 -110 -60 -212 -25 -268 20 -33 50 -29 145 17 76 37 129 50 129 33 0 -3
-70 -326 -155 -717 -155 -714 -262 -1236 -310 -1506 -31 -173 -42 -357 -26
-417 15 -53 60 -93 107 -93 86 0 215 71 321 177 103 102 156 237 223 561 l28
137 83 1 c220 4 459 131 615 327 124 157 253 465 309 740 56 278 51 518 -17
727 -43 135 -105 238 -203 336 -75 77 -104 98 -175 132 -47 22 -119 48 -160
57 -101 23 -330 29 -440 10z m390 -704 c21 -36 51 -106 66 -156 26 -85 28
-102 28 -295 1 -225 -7 -289 -56 -430 -49 -141 -122 -255 -235 -366 -51 -50
-132 -100 -152 -92 -5 1 56 323 135 713 79 391 143 712 144 714 1 13 37 -32
70 -88z"/>
<path d="M7475 6115 c-21 -8 -47 -24 -57 -37 -82 -105 -158 -386 -158 -587 0
-163 41 -251 124 -266 94 -18 178 78 239 270 38 122 51 217 52 365 0 117 -3
141 -22 182 -33 73 -100 101 -178 73z"/>
<path d="M6605 6110 c-134 -19 -236 -77 -285 -162 -74 -131 -166 -507 -309
-1268 -138 -733 -221 -1298 -221 -1508 0 -132 13 -184 59 -232 52 -54 107 -64
371 -63 377 0 440 32 564 287 84 172 117 314 81 349 -24 25 -64 21 -199 -19
-156 -46 -326 -87 -333 -80 -8 8 79 437 141 697 30 123 106 418 169 654 270
1013 306 1271 183 1329 -41 19 -144 27 -221 16z"/>
<path d="M22247 6056 c-91 -33 -188 -128 -236 -230 -37 -77 -89 -249 -147
-480 -24 -99 -45 -180 -47 -181 -89 -41 -160 -126 -207 -250 -24 -65 -38 -206
-26 -270 9 -46 46 -85 81 -85 21 0 25 -4 20 -22 -7 -33 -91 -531 -112 -668
-12 -79 -17 -176 -18 -310 0 -174 2 -203 23 -274 47 -163 126 -274 224 -316
112 -48 257 -6 377 110 94 89 203 273 188 313 -3 9 -26 16 -61 19 -141 12
-206 127 -206 366 0 140 35 564 55 672 22 121 25 126 79 133 153 21 247 170
250 394 1 94 -1 103 -23 127 -16 16 -51 34 -95 47 -39 12 -72 22 -73 23 -6 5
59 297 106 479 66 254 66 334 2 391 -27 24 -104 30 -154 12z"/>
<path d="M17366 5969 c-255 -35 -411 -112 -479 -237 -77 -141 -71 -312 10
-312 14 0 61 18 105 40 45 22 92 40 106 40 21 0 23 -3 17 -27 -31 -127 -314
-1446 -380 -1778 -98 -490 -116 -606 -118 -735 -1 -142 36 -200 128 -200 79 0
211 75 312 178 100 102 169 284 228 602 l18 95 96 1 c245 3 502 160 660 404
100 154 206 430 256 672 36 167 45 411 21 548 -65 372 -266 617 -567 690 -98
24 -309 34 -413 19z m323 -664 c77 -108 119 -249 128 -435 17 -367 -79 -645
-295 -853 -84 -81 -170 -124 -159 -79 3 9 67 331 143 714 77 384 142 698 145
698 3 0 20 -20 38 -45z"/>
<path d="M11060 5245 c-345 -78 -701 -530 -835 -1060 -46 -180 -59 -306 -52
-505 9 -269 59 -418 183 -550 137 -144 306 -220 495 -220 131 0 252 45 386
144 238 175 372 405 448 766 32 152 45 467 26 613 -43 318 -183 530 -341 515
-93 -9 -239 -101 -317 -199 -48 -60 -44 -87 21 -173 138 -179 205 -424 193
-696 -9 -187 -58 -355 -135 -455 -98 -129 -223 -122 -313 18 -73 112 -101 244
-101 467 1 378 102 725 278 957 89 116 188 180 307 198 59 9 94 36 103 79 13
74 -37 105 -184 111 -64 3 -119 0 -162 -10z"/>
<path d="M23501 5244 c-141 -30 -270 -112 -417 -267 -208 -217 -377 -557 -445
-893 -30 -151 -38 -430 -15 -571 29 -187 86 -302 202 -411 134 -127 263 -183
435 -190 126 -5 186 9 297 69 272 145 453 390 541 731 79 305 83 677 10 914
-65 212 -178 333 -298 322 -130 -13 -351 -182 -351 -270 0 -20 19 -56 60 -112
70 -96 119 -200 148 -311 71 -271 52 -541 -52 -755 -83 -171 -211 -215 -318
-108 -228 228 -176 997 97 1419 94 146 199 224 339 253 78 16 104 37 113 88 4
30 1 41 -19 61 -44 44 -200 59 -327 31z"/>
<path d="M2756 5169 c-59 -14 -166 -74 -238 -134 -272 -223 -489 -692 -575
-1237 -22 -141 -22 -399 0 -498 35 -160 134 -307 242 -360 43 -22 64 -25 155
-25 97 0 110 3 172 32 160 75 353 245 501 441 134 179 156 237 111 299 -27 38
-88 67 -121 59 -14 -4 -73 -57 -136 -122 -162 -167 -258 -224 -322 -193 -30
15 -60 51 -69 85 -6 20 -3 21 43 16 38 -3 61 1 98 19 113 55 293 282 403 512
98 203 140 382 140 599 0 332 -111 520 -304 517 -34 -1 -78 -5 -100 -10z m-9
-366 c13 -44 5 -274 -12 -401 -42 -308 -140 -600 -239 -717 l-34 -40 -7 59
c-14 113 15 347 76 596 69 289 160 530 199 530 6 0 13 -12 17 -27z"/>
<path d="M3611 5168 c-85 -19 -186 -150 -244 -315 -28 -78 -31 -101 -32 -201
l0 -114 34 -30 c33 -30 36 -30 110 -25 102 7 239 53 415 141 l143 71 -64 -134
c-100 -210 -219 -423 -513 -921 -180 -304 -178 -300 -200 -365 -60 -175 19
-331 215 -425 125 -61 233 -84 400 -84 124 -1 147 2 197 22 162 65 287 221
348 432 31 104 40 338 16 375 -9 14 -23 25 -31 25 -7 0 -57 -22 -109 -49 -110
-56 -203 -81 -307 -81 -63 0 -71 2 -66 18 3 9 69 163 146 341 78 179 186 435
240 570 180 448 208 559 159 630 -49 73 -96 85 -408 106 -334 22 -402 24 -449
13z"/>
<path d="M18782 5155 c-119 -61 -196 -212 -282 -554 -93 -373 -156 -760 -181
-1116 -22 -305 4 -470 86 -552 37 -38 48 -43 86 -43 107 0 255 136 613 565 60
72 115 136 122 144 10 11 12 -20 12 -155 -1 -248 34 -376 125 -468 100 -100
288 -100 406 -1 59 50 61 67 46 280 -18 232 -19 554 -4 826 26 461 15 605 -52
672 -26 25 -35 29 -69 24 -55 -7 -128 -64 -206 -160 -77 -96 -291 -415 -384
-576 -92 -157 -182 -293 -202 -305 -12 -8 -21 -7 -30 2 -19 19 5 137 89 427
100 345 130 466 143 586 20 181 -17 324 -103 393 -31 25 -49 31 -100 34 -52 3
-71 -1 -115 -23z"/>
<path d="M14580 5151 c-55 -18 -131 -63 -164 -97 -74 -76 -107 -187 -127 -429
-37 -437 60 -950 297 -1584 30 -80 53 -148 52 -151 -2 -4 -49 -44 -105 -89
-163 -131 -220 -216 -269 -407 -30 -115 -38 -260 -15 -287 10 -12 29 -17 71
-17 73 0 153 39 242 118 299 266 541 693 763 1342 170 498 338 1115 375 1377
23 158 -6 223 -99 223 -40 0 -59 -7 -105 -38 -31 -20 -74 -60 -97 -87 -83
-100 -115 -190 -174 -481 -37 -185 -132 -576 -253 -1037 -8 -32 -18 -55 -22
-50 -17 20 -81 587 -105 938 -19 285 -43 534 -57 600 -14 66 -42 121 -73 141
-29 19 -99 27 -135 15z"/>
<path d="M9073 5119 c-117 -58 -246 -250 -548 -816 -66 -122 -121 -221 -122
-219 -2 2 21 111 51 242 74 322 89 410 90 539 1 100 -1 114 -24 155 -65 116
-212 131 -303 31 -95 -105 -161 -287 -296 -821 -113 -445 -154 -683 -154 -890
0 -281 76 -440 208 -440 46 0 81 19 126 67 83 89 142 182 322 510 122 222 264
462 252 428 -4 -11 -22 -83 -40 -160 -99 -412 -105 -576 -29 -732 45 -93 85
-125 162 -131 106 -7 135 26 432 494 116 184 223 354 237 377 14 23 22 34 19
24 -3 -10 -9 -158 -12 -330 -9 -433 6 -560 86 -724 47 -95 127 -188 185 -214
86 -40 190 -16 257 59 64 70 66 93 33 340 -46 358 -45 570 6 1212 38 466 7
640 -123 694 -104 43 -164 -9 -337 -286 -106 -169 -303 -472 -321 -491 -4 -5
12 79 36 185 66 291 94 452 94 543 0 140 -47 273 -120 339 -33 29 -48 36 -83
36 -23 0 -61 -9 -84 -21z"/>
<path d="M7370 5113 c-46 -24 -80 -77 -129 -199 -95 -237 -188 -673 -233
-1094 -6 -63 -12 -216 -12 -340 0 -251 11 -325 65 -440 58 -125 107 -166 186
-157 110 12 153 123 258 667 82 425 119 760 120 1075 0 251 -9 309 -63 408
-46 85 -122 116 -192 80z"/>
<path d="M12324 5111 c-107 -49 -194 -237 -288 -624 -118 -483 -191 -988 -184
-1272 5 -176 16 -225 71 -307 71 -106 191 -118 260 -26 14 18 66 115 116 216
50 100 129 251 175 335 90 164 282 484 272 453 -14 -41 -19 -392 -7 -492 25
-216 84 -377 166 -460 55 -55 107 -70 177 -53 60 14 159 79 202 132 38 47 39
87 7 252 -31 155 -43 441 -31 685 19 369 24 665 11 732 -27 137 -76 190 -179
191 -72 0 -120 -24 -188 -95 -82 -85 -177 -226 -334 -498 -54 -94 -71 -116
-66 -90 18 105 47 405 52 540 9 231 -21 346 -100 384 -44 21 -81 20 -132 -3z"/>
<path d="M20435 5111 c-70 -32 -123 -109 -185 -268 -69 -175 -165 -580 -224
-943 -75 -464 -88 -753 -40 -896 64 -192 224 -245 317 -105 14 21 67 120 117
220 107 214 218 416 336 614 48 78 88 144 90 146 2 2 1 -83 -3 -190 -9 -288
20 -484 93 -637 67 -139 152 -196 255 -172 58 14 161 81 203 133 38 47 39 87
6 252 -31 161 -43 438 -30 693 21 397 24 659 6 741 -26 124 -78 174 -181 174
-65 0 -116 -27 -181 -95 -89 -93 -181 -230 -331 -493 -64 -111 -74 -124 -69
-90 49 336 66 615 46 745 -25 158 -111 224 -225 171z"/>
<path d="M22816 2248 c-51 -110 -76 -170 -76 -179 0 -5 30 -9 68 -9 l67 1 87
129 88 130 -100 0 -100 0 -34 -72z"/>
<path d="M2718 1981 c-73 -24 -116 -51 -168 -107 -62 -67 -83 -122 -88 -229
-5 -117 19 -187 90 -257 62 -63 134 -96 333 -153 239 -69 280 -91 316 -170 25
-55 24 -102 -6 -162 -45 -89 -134 -133 -271 -133 -96 0 -170 23 -237 74 -59
45 -85 94 -111 209 -6 27 -7 27 -86 27 l-80 0 0 -27 c1 -52 28 -161 55 -213
39 -77 117 -155 189 -189 87 -41 166 -54 303 -49 108 4 124 7 189 37 88 41
163 113 201 196 22 49 28 78 31 155 5 129 -18 193 -97 271 -71 70 -133 99
-315 149 -201 55 -255 77 -298 120 -64 64 -61 153 8 230 50 55 109 73 232 68
81 -2 106 -7 147 -29 60 -30 100 -85 117 -156 l13 -53 82 0 c93 0 89 -5 72 85
-29 156 -136 269 -294 311 -74 20 -257 17 -327 -5z"/>
<path d="M14410 1982 c-201 -67 -335 -219 -387 -439 -27 -118 -25 -367 5 -488
60 -239 181 -383 371 -439 80 -24 251 -22 333 4 152 47 266 171 323 353 14 43
25 80 25 82 0 2 -33 14 -72 25 -40 12 -78 23 -85 25 -7 2 -18 -18 -28 -53 -39
-134 -113 -225 -213 -262 -81 -31 -205 -25 -280 14 -150 76 -224 240 -224 496
-1 254 73 418 224 497 49 26 62 28 163 28 127 0 165 -14 229 -85 36 -41 86
-131 86 -158 0 -7 7 -15 15 -18 15 -6 143 23 158 36 11 10 -35 130 -72 188
-46 72 -122 139 -199 175 -63 30 -75 32 -192 34 -99 2 -136 -1 -180 -15z"/>
<path d="M18340 1982 c-201 -67 -335 -219 -387 -439 -27 -118 -25 -367 5 -488
60 -239 181 -383 371 -439 80 -24 251 -22 333 4 152 47 266 171 323 353 14 43
25 80 25 82 0 2 -33 14 -72 25 -40 12 -78 23 -85 25 -7 2 -18 -18 -28 -53 -39
-134 -113 -225 -213 -262 -81 -31 -205 -25 -280 14 -150 76 -224 240 -224 496
-1 254 73 418 224 497 49 26 62 28 163 28 127 0 165 -14 229 -85 36 -41 86
-131 86 -158 0 -7 7 -15 15 -18 15 -6 143 23 158 36 11 10 -35 130 -72 188
-46 72 -122 139 -199 175 -63 30 -75 32 -192 34 -99 2 -136 -1 -180 -15z"/>
<path d="M130 1301 l0 -681 85 0 85 0 0 302 0 301 136 -7 c218 -11 222 -14
440 -396 l112 -195 106 -3 c58 -1 106 0 106 4 0 3 -55 102 -121 220 -127 223
-187 307 -255 359 l-40 31 60 18 c110 32 172 83 227 186 22 41 24 57 24 170 0
122 -1 127 -33 192 -37 76 -91 128 -161 155 -40 15 -92 18 -408 21 l-363 3 0
-680z m682 487 c130 -60 157 -230 53 -333 -57 -57 -99 -66 -352 -72 l-213 -6
0 223 0 223 228 -5 c218 -4 230 -6 284 -30z"/>
<path d="M1350 1300 l0 -680 455 0 455 0 0 80 0 80 -370 0 -370 0 0 230 0 230
335 0 335 0 0 80 0 80 -335 0 -335 0 0 210 0 210 355 0 355 0 0 80 0 80 -440
0 -440 0 0 -680z"/>
<path d="M3500 1900 l0 -80 200 0 200 0 0 -600 0 -600 85 0 85 0 0 600 0 600
200 0 200 0 0 80 0 80 -485 0 -485 0 0 -80z"/>
<path d="M4594 1309 c-126 -370 -230 -676 -232 -681 -2 -4 38 -8 90 -8 l93 0
66 208 66 207 246 3 245 2 13 -37 c6 -21 39 -116 71 -210 l60 -173 98 0 97 0
-246 678 -246 677 -96 3 -96 3 -229 -672z m432 159 l92 -278 -194 0 c-107 0
-194 3 -194 7 0 4 36 115 79 247 44 133 86 270 93 305 13 64 13 64 22 30 5
-19 51 -159 102 -311z"/>
<path d="M5630 1513 c1 -496 5 -558 49 -675 42 -110 154 -200 282 -228 36 -8
101 -11 180 -8 166 7 220 27 310 117 126 127 139 199 139 814 l0 447 -84 0
-84 0 -5 -472 c-4 -511 -6 -528 -60 -621 -18 -30 -42 -52 -79 -72 -47 -26 -65
-30 -155 -33 -91 -4 -107 -2 -155 20 -57 27 -101 66 -125 111 -37 73 -43 148
-43 615 l0 452 -85 0 -85 0 0 -467z"/>
<path d="M6840 1301 l0 -681 85 0 85 0 0 302 0 301 136 -7 c218 -11 222 -14
440 -396 l112 -195 106 -3 c58 -1 106 0 106 4 0 3 -55 102 -121 220 -127 223
-187 307 -255 359 l-40 31 60 18 c110 32 172 83 227 186 22 41 24 57 24 170 0
122 -1 127 -33 192 -37 76 -91 128 -161 155 -40 15 -92 18 -408 21 l-363 3 0
-680z m682 487 c130 -60 157 -230 53 -333 -57 -57 -99 -66 -352 -72 l-213 -6
0 223 0 223 228 -5 c218 -4 230 -6 284 -30z"/>
<path d="M8154 1309 c-126 -370 -230 -676 -232 -681 -2 -4 38 -8 90 -8 l93 0
66 208 66 207 246 3 245 2 13 -37 c6 -21 39 -116 71 -210 l60 -173 98 0 97 0
-246 678 -246 677 -96 3 -96 3 -229 -672z m432 159 l92 -278 -194 0 c-107 0
-194 3 -194 7 0 4 36 115 79 247 44 133 86 270 93 305 13 64 13 64 22 30 5
-19 51 -159 102 -311z"/>
<path d="M9170 1300 l0 -680 85 0 85 0 2 517 3 517 306 -515 305 -514 92 -3
92 -3 0 681 0 680 -85 0 -85 0 -2 -516 -3 -517 -305 514 -306 514 -92 3 -92 3
0 -681z"/>
<path d="M10300 1900 l0 -80 200 0 200 0 0 -600 0 -600 85 0 85 0 0 600 0 600
200 0 200 0 0 80 0 80 -485 0 -485 0 0 -80z"/>
<path d="M11430 1300 l0 -680 455 0 455 0 0 80 0 80 -370 0 -370 0 0 230 0
230 335 0 335 0 0 80 0 80 -335 0 -335 0 0 210 0 210 355 0 355 0 0 80 0 80
-440 0 -440 0 0 -680z"/>
<path d="M15270 1300 l0 -680 455 0 455 0 0 80 0 80 -370 0 -370 0 0 230 0
230 335 0 335 0 0 80 0 80 -335 0 -335 0 0 210 0 210 355 0 355 0 0 80 0 80
-440 0 -440 0 0 -680z"/>
<path d="M16305 1853 c23 -71 122 -357 220 -638 98 -280 184 -529 192 -552
l15 -43 86 0 87 0 234 668 c129 367 236 673 239 680 3 9 -18 12 -85 12 l-90 0
-182 -549 c-99 -302 -184 -563 -187 -580 -9 -44 -21 -47 -28 -7 -5 25 -231
746 -347 1104 l-11 32 -93 0 -94 0 44 -127z"/>
<path d="M17540 1300 l0 -680 85 0 85 0 0 680 0 680 -85 0 -85 0 0 -680z"/>
<path d="M19200 1300 l0 -680 85 0 85 0 0 320 0 320 310 0 310 0 0 -320 0
-320 85 0 85 0 0 680 0 680 -85 0 -85 0 0 -280 0 -280 -310 0 -310 0 0 280 0
280 -85 0 -85 0 0 -680z"/>
<path d="M20420 1300 l0 -680 455 0 455 0 0 80 0 80 -370 0 -370 0 0 230 0
230 335 0 335 0 0 80 0 80 -335 0 -335 0 0 210 0 210 355 0 355 0 0 80 0 80
-440 0 -440 0 0 -680z"/>
<path d="M21540 1301 l0 -681 85 0 85 0 0 302 0 301 136 -7 c218 -11 222 -14
440 -396 l112 -195 106 -3 c58 -1 106 0 106 4 0 3 -55 102 -121 220 -127 223
-187 307 -255 359 l-40 31 60 18 c110 32 172 83 227 186 22 41 24 57 24 170 0
122 -1 127 -33 192 -37 76 -91 128 -161 155 -40 15 -92 18 -408 21 l-363 3 0
-680z m682 487 c130 -60 157 -230 53 -333 -57 -57 -99 -66 -352 -72 l-213 -6
0 223 0 223 228 -5 c218 -4 230 -6 284 -30z"/>
<path d="M22780 1300 l0 -680 85 0 85 0 0 680 0 680 -85 0 -85 0 0 -680z"/>
<path d="M23324 1309 c-126 -370 -230 -676 -232 -681 -2 -4 38 -8 90 -8 l93 0
66 208 66 207 246 3 245 2 13 -37 c6 -21 39 -116 71 -210 l60 -173 98 0 97 0
-246 678 -246 677 -96 3 -96 3 -229 -672z m432 159 l92 -278 -194 0 c-107 0
-194 3 -194 7 0 4 36 115 79 247 44 133 86 270 93 305 13 64 13 64 22 30 5
-19 51 -159 102 -311z"/>
<path d="M12940 1110 l0 -80 230 0 230 0 0 80 0 80 -230 0 -230 0 0 -80z"/>
</g>
</svg>
