<?xml version="1.0" standalone="no"?>
<!DOCTYPE svg PUBLIC "-//W3C//DTD SVG 20010904//EN"
 "http://www.w3.org/TR/2001/REC-SVG-20010904/DTD/svg10.dtd">
<svg version="1.0" xmlns="http://www.w3.org/2000/svg"
 width="1003.000000pt" height="781.000000pt" viewBox="0 0 1003.000000 781.000000"
 preserveAspectRatio="xMidYMid meet">

<g transform="translate(0.000000,781.000000) scale(0.100000,-0.100000)"
fill="#000000" stroke="none">
<path d="M5850 7799 c-818 -57 -1591 -368 -2227 -894 -186 -154 -591 -575
-554 -575 6 0 52 38 102 85 374 349 869 638 1384 806 152 50 405 112 560 138
421 71 906 71 1320 0 972 -165 1830 -679 2392 -1435 363 -488 576 -1032 644
-1644 17 -154 15 -508 -5 -675 -89 -744 -409 -1409 -944 -1957 -1154 -1182
-2999 -1477 -4508 -720 -487 244 -927 604 -1247 1021 -32 40 -57 67 -57 59 0
-21 156 -271 247 -396 603 -827 1497 -1385 2493 -1556 261 -45 340 -51 675
-51 335 0 414 6 675 51 1225 210 2286 1005 2836 2127 197 403 317 813 376
1287 21 167 18 741 -5 910 -99 741 -377 1399 -833 1970 -138 173 -421 456
-594 594 -140 111 -386 279 -525 358 -663 376 -1440 551 -2205 497z"/>
<path d="M16 6823 c-3 -21 -8 -135 -12 -253 -24 -786 190 -2017 617 -3545 179
-639 440 -1468 446 -1415 2 14 -30 695 -71 1515 -41 819 -74 1491 -72 1492 1
1 47 -62 101 -139 157 -223 413 -562 612 -810 l182 -228 -314 0 c-173 0 -315
-3 -315 -7 0 -5 201 -78 448 -163 425 -147 449 -156 487 -195 22 -22 117 -123
211 -225 638 -688 1245 -1175 1813 -1454 737 -362 1605 -508 2348 -395 870
132 1597 614 2142 1419 189 278 368 611 469 872 l49 126 -151 6 c-83 3 -542
13 -1020 21 l-870 16 -15 22 c-8 12 -53 62 -100 110 -371 383 -924 616 -1619
681 l-62 6 14 -33 c205 -461 300 -728 280 -782 -6 -13 -188 -15 -1632 -13
l-1626 3 -69 80 c-510 588 -1175 1439 -1466 1875 -169 254 -183 279 -517 927
-148 287 -272 523 -275 523 -4 0 -9 -17 -13 -37z m8639 -3693 c-101 -199 -307
-499 -503 -735 -117 -140 -384 -400 -527 -515 -133 -106 -357 -260 -379 -260
-23 0 -101 57 -148 107 -92 99 -165 237 -238 448 -39 113 -100 348 -115 443
-4 23 -11 42 -15 42 -15 0 -61 -86 -83 -153 -16 -49 -20 -89 -20 -187 0 -211
54 -401 199 -699 46 -96 83 -175 81 -177 -10 -11 -208 -80 -310 -110 -515
-148 -1014 -135 -1544 41 -647 216 -1312 662 -1965 1322 -177 179 -390 414
-382 423 3 2 1286 16 2852 31 1566 14 2909 27 2985 28 l137 1 -25 -50z"/>
<path d="M7450 2768 c-50 -26 -90 -89 -90 -143 0 -54 40 -117 90 -142 24 -13
58 -23 75 -23 54 0 117 40 143 90 12 24 22 58 22 75 0 17 -10 51 -22 75 -26
50 -89 90 -143 90 -17 0 -51 -10 -75 -22z"/>
</g>
</svg>
