<?xml version="1.0" standalone="no"?>
<!DOCTYPE svg PUBLIC "-//W3C//DTD SVG 20010904//EN"
 "http://www.w3.org/TR/2001/REC-SVG-20010904/DTD/svg10.dtd">
<svg version="1.0" xmlns="http://www.w3.org/2000/svg"
 width="2177.000000pt" height="571.000000pt" viewBox="0 0 2177.000000 571.000000"
 preserveAspectRatio="xMidYMid meet">

<g transform="translate(0.000000,571.000000) scale(0.100000,-0.100000)"
fill="#000000" stroke="none">
<path d="M10305 5676 c-102 -37 -166 -68 -182 -88 -5 -7 -34 -67 -63 -133 -71
-164 -113 -238 -177 -317 -66 -81 -79 -132 -43 -168 19 -19 29 -21 73 -16 90
12 154 51 257 155 196 197 335 459 306 575 -5 22 -12 26 -44 26 -20 -1 -77
-16 -127 -34z"/>
<path d="M934 5476 c-184 -30 -318 -91 -371 -169 -64 -95 -92 -225 -61 -291
18 -42 42 -41 130 3 73 37 137 54 124 33 -9 -14 -283 -1289 -350 -1627 -86
-432 -98 -511 -100 -630 -1 -144 24 -185 116 -185 52 0 122 32 204 92 141 105
196 217 264 537 17 77 30 143 30 146 0 3 30 5 68 5 94 0 182 23 287 75 168 82
278 196 378 392 83 163 152 375 188 583 20 110 17 346 -5 450 -36 174 -113
317 -227 426 -119 113 -253 162 -464 169 -82 3 -160 0 -211 -9z m366 -671 c45
-90 61 -167 67 -311 9 -211 -24 -398 -94 -539 -72 -142 -242 -316 -298 -303
-10 2 14 141 111 623 69 341 127 627 130 635 8 21 46 -27 84 -105z"/>
<path d="M5895 5469 c-79 -12 -177 -61 -215 -107 -66 -80 -128 -302 -240 -862
-147 -728 -245 -1347 -257 -1610 -8 -184 12 -246 89 -286 77 -40 483 -39 602
2 68 24 121 81 182 200 81 157 119 288 95 333 -16 29 -66 28 -172 -4 -135 -41
-280 -76 -299 -73 -32 6 80 510 270 1223 234 872 267 1115 161 1170 -39 20
-138 27 -216 14z"/>
<path d="M6657 5460 c-90 -71 -180 -428 -157 -619 16 -120 49 -161 132 -161
41 0 52 5 83 37 85 88 143 269 152 479 7 159 -5 222 -49 259 -39 33 -122 35
-161 5z"/>
<path d="M19865 5401 c-58 -33 -135 -112 -163 -167 -29 -57 -94 -266 -138
-447 l-39 -158 -41 -24 c-51 -30 -106 -103 -141 -187 -24 -55 -27 -77 -27
-176 -1 -112 -1 -114 27 -138 15 -13 36 -24 45 -24 16 0 13 -28 -30 -282 -99
-593 -101 -766 -9 -964 60 -128 141 -188 256 -189 61 0 78 5 132 34 80 43 150
111 208 200 41 63 75 137 75 162 0 5 -12 9 -27 9 -82 0 -148 42 -182 115 -41
87 -45 176 -21 472 11 147 29 310 38 362 l17 94 55 12 c65 13 86 24 122 62 62
66 98 175 98 298 0 104 -10 118 -100 146 -39 11 -70 25 -70 31 0 26 46 232 91
406 62 244 64 309 8 361 -35 33 -120 29 -184 -8z"/>
<path d="M15451 5329 c-124 -26 -233 -73 -282 -118 -80 -77 -129 -243 -96
-324 20 -47 45 -48 130 -5 34 17 77 34 95 39 31 7 33 6 28 -14 -16 -60 -274
-1254 -326 -1513 -141 -696 -152 -853 -66 -910 79 -51 298 69 394 217 50 77
100 226 138 416 l29 143 36 -6 c54 -9 173 13 258 47 244 97 414 299 530 633
125 357 145 680 57 938 -44 130 -86 197 -181 293 -136 137 -241 175 -490 181
-133 3 -176 0 -254 -17z m424 -664 c54 -110 68 -206 62 -414 -4 -136 -10 -194
-26 -256 -41 -154 -134 -312 -241 -408 -51 -46 -117 -83 -128 -72 -5 4 153
810 240 1230 l11 49 24 -29 c13 -17 39 -61 58 -100z"/>
<path d="M9888 4695 c-326 -82 -650 -521 -760 -1029 -19 -86 -22 -131 -22
-311 0 -226 12 -298 67 -419 73 -158 242 -282 438 -322 71 -14 95 -15 159 -5
224 34 480 250 591 498 39 87 82 232 105 358 15 79 19 145 18 315 0 200 -2
222 -26 312 -46 169 -111 279 -189 318 -92 48 -212 6 -336 -116 -92 -90 -93
-104 -22 -200 186 -249 229 -654 99 -940 -34 -75 -101 -151 -144 -162 -158
-42 -275 172 -275 503 -1 379 128 761 316 937 63 58 114 84 200 102 80 17 106
41 101 95 -3 31 -9 39 -42 55 -52 25 -199 31 -278 11z"/>
<path d="M21018 4695 c-327 -83 -651 -523 -760 -1032 -20 -94 -23 -134 -22
-313 1 -223 14 -303 70 -418 77 -158 238 -277 429 -317 180 -37 362 28 538
194 169 160 253 323 313 605 35 168 44 438 19 587 -30 183 -99 333 -181 395
-57 44 -133 45 -218 4 -107 -53 -216 -163 -216 -217 0 -10 23 -50 51 -88 100
-135 149 -272 169 -468 18 -175 -9 -348 -75 -482 -58 -120 -127 -171 -204
-154 -128 28 -210 225 -211 504 0 379 133 770 321 939 67 60 111 83 196 100
80 17 106 41 101 95 -3 31 -9 39 -42 55 -52 25 -199 31 -278 11z"/>
<path d="M2466 4629 c-134 -32 -310 -184 -434 -378 -122 -190 -231 -499 -288
-816 -25 -139 -25 -405 -1 -495 41 -151 116 -258 214 -306 46 -23 69 -28 132
-27 92 0 157 22 268 95 150 96 401 380 449 505 17 44 17 47 -2 82 -22 42 -82
76 -116 66 -13 -4 -68 -53 -123 -109 -112 -114 -179 -165 -230 -173 -64 -10
-99 12 -119 73 -6 20 -4 21 38 17 35 -4 54 0 95 23 103 56 251 240 346 431 92
184 135 365 135 562 -1 340 -133 504 -364 450z m-3 -345 c10 -36 1 -224 -18
-363 -37 -259 -118 -501 -209 -616 l-31 -39 -6 54 c-19 165 68 612 172 880 47
122 73 146 92 84z"/>
<path d="M3248 4630 c-41 -8 -84 -32 -111 -64 -88 -103 -147 -249 -154 -382
-9 -144 21 -181 136 -171 103 9 250 65 483 185 13 6 -114 -254 -188 -388 -84
-150 -148 -260 -318 -547 -167 -283 -189 -330 -194 -414 -5 -87 22 -151 92
-217 107 -101 265 -153 471 -156 l131 -1 76 37 c190 94 307 314 311 584 2 113
-6 144 -39 144 -8 0 -56 -20 -107 -44 -94 -46 -211 -76 -291 -76 l-44 0 135
313 c263 608 383 925 383 1013 0 57 -22 96 -69 122 -55 31 -124 38 -601 66
-36 2 -81 0 -102 -4z"/>
<path d="M16815 4621 c-42 -19 -96 -72 -132 -132 -85 -137 -203 -621 -263
-1079 -27 -206 -38 -556 -20 -639 37 -171 130 -224 250 -144 75 50 218 198
405 418 86 102 157 185 158 185 1 0 2 -71 2 -157 0 -101 5 -178 14 -213 42
-170 132 -259 262 -260 87 0 157 25 208 76 l43 44 -8 142 c-10 152 -11 578 -3
1023 4 244 2 274 -14 318 -30 77 -86 98 -153 56 -91 -56 -303 -347 -517 -710
-92 -157 -130 -209 -153 -209 -35 0 -15 97 99 495 42 143 81 289 88 325 19
104 17 265 -5 328 -44 129 -152 183 -261 133z"/>
<path d="M13040 4611 c-88 -27 -166 -96 -201 -178 -30 -71 -50 -203 -56 -379
-14 -383 66 -781 264 -1318 30 -81 51 -151 46 -155 -4 -4 -37 -30 -73 -58 -76
-59 -156 -142 -188 -195 -57 -92 -112 -338 -92 -408 12 -42 24 -50 76 -50 124
0 323 179 510 461 87 130 206 367 284 564 162 409 391 1194 435 1490 25 171 5
225 -83 225 -109 0 -228 -127 -285 -305 -9 -27 -35 -140 -57 -250 -23 -110
-57 -263 -76 -340 -81 -324 -157 -611 -164 -618 -4 -4 -10 16 -13 45 -3 29
-15 123 -26 208 -25 195 -46 421 -66 715 -27 397 -50 507 -114 539 -32 17 -79
19 -121 7z"/>
<path d="M8099 4572 c-104 -67 -208 -225 -485 -744 -49 -92 -90 -165 -92 -163
-2 2 13 72 33 157 62 261 85 389 91 504 6 103 5 115 -16 158 -30 62 -80 96
-142 96 -62 0 -88 -11 -133 -57 -80 -80 -165 -320 -280 -784 -91 -367 -125
-571 -125 -749 0 -248 70 -393 190 -393 88 0 182 120 380 483 92 170 232 411
236 408 2 -2 -6 -37 -16 -78 -104 -397 -108 -634 -15 -756 57 -75 140 -96 205
-51 56 38 101 100 318 444 l209 331 -5 -306 c-6 -413 10 -530 95 -670 47 -77
94 -127 144 -152 75 -39 175 -17 236 53 55 63 57 82 28 298 -43 330 -43 518 1
1039 19 233 19 448 0 522 -29 106 -79 158 -154 158 -75 0 -123 -50 -257 -267
-88 -143 -285 -441 -285 -432 0 4 22 110 50 236 64 294 77 398 63 484 -16 94
-50 175 -92 220 -34 35 -43 39 -87 39 -38 0 -61 -7 -95 -28z"/>
<path d="M6595 4581 c-32 -14 -52 -41 -95 -133 -89 -191 -185 -616 -225 -1000
-20 -191 -20 -481 0 -583 30 -160 114 -285 191 -285 109 0 143 72 229 490 129
630 168 1172 99 1376 -40 119 -115 169 -199 135z"/>
<path d="M11014 4571 c-85 -52 -160 -215 -235 -513 -109 -437 -188 -973 -176
-1208 10 -206 80 -320 198 -320 73 0 95 26 209 252 114 225 214 406 315 573
36 60 67 111 69 112 1 1 2 -97 2 -220 -1 -176 3 -240 17 -310 35 -173 99 -296
176 -341 43 -25 114 -26 161 -2 66 34 137 94 154 131 19 39 20 27 -19 250 -26
152 -30 427 -10 745 18 300 15 431 -11 520 -43 144 -177 170 -299 58 -71 -65
-225 -293 -340 -506 -15 -28 -30 -50 -32 -48 -2 1 6 79 18 172 26 203 31 494
11 563 -8 25 -29 60 -47 78 -28 28 -40 33 -81 33 -31 0 -61 -7 -80 -19z"/>
<path d="M18275 4571 c-117 -71 -212 -329 -315 -851 -82 -416 -121 -847 -90
-981 18 -75 52 -140 95 -177 30 -27 44 -32 85 -32 77 0 106 32 206 232 105
210 229 437 325 593 l74 121 1 -251 c0 -237 1 -255 26 -346 14 -53 38 -120 53
-150 36 -72 100 -137 147 -150 71 -19 172 25 247 106 36 39 41 50 41 92 0 27
-10 95 -22 153 -19 93 -21 138 -22 405 0 165 3 417 8 560 8 230 7 268 -8 325
-20 79 -36 104 -79 127 -41 21 -123 22 -163 0 -78 -41 -200 -204 -359 -479
-44 -75 -80 -136 -81 -135 0 1 7 62 17 136 57 427 40 659 -50 705 -40 21 -99
20 -136 -3z"/>
<path d="M4614 3230 c-85 -26 -171 -188 -249 -470 -47 -170 -68 -298 -63 -397
3 -70 6 -85 27 -107 50 -53 145 -23 231 71 64 70 134 212 195 396 61 185 87
297 89 384 1 67 -1 75 -27 100 -24 24 -35 28 -100 30 -39 1 -86 -2 -103 -7z"/>
<path d="M20422 2023 c-54 -121 -72 -164 -72 -174 0 -6 25 -9 62 -7 l61 3 74
108 c40 59 73 110 73 113 0 2 -40 4 -88 4 l-88 0 -22 -47z"/>
<path d="M2443 1775 c-100 -31 -168 -88 -207 -175 -35 -78 -41 -145 -21 -222
32 -128 102 -187 285 -244 63 -20 150 -47 193 -60 138 -42 187 -91 187 -184 0
-43 -6 -65 -26 -96 -50 -78 -126 -108 -253 -102 -152 8 -244 77 -278 209 l-17
69 -73 0 c-84 0 -81 5 -59 -101 36 -166 134 -274 290 -315 80 -21 250 -18 322
6 79 27 152 84 192 150 42 70 52 109 52 196 0 91 -22 152 -75 212 -53 58 -113
92 -225 125 -47 14 -125 37 -175 52 -127 38 -169 64 -190 120 -31 80 2 157 87
199 43 22 66 26 132 26 98 0 145 -12 187 -47 34 -29 79 -114 79 -150 0 -22 4
-23 76 -23 l77 0 -7 57 c-17 148 -115 261 -258 299 -66 17 -239 17 -295 -1z"/>
<path d="M12878 1767 c-165 -57 -271 -180 -325 -377 -27 -98 -24 -347 5 -453
34 -125 77 -204 151 -278 97 -97 145 -114 326 -114 135 0 142 1 200 29 115 56
212 183 249 324 l14 51 -52 15 c-110 32 -102 33 -115 -20 -27 -106 -98 -197
-183 -234 -44 -19 -65 -22 -133 -18 -171 9 -272 111 -310 313 -19 97 -19 240
0 327 28 135 85 223 176 273 45 24 69 30 141 33 80 4 93 2 142 -22 76 -37 122
-98 159 -208 6 -16 11 -16 79 3 40 11 74 22 75 23 2 2 -6 29 -17 61 -41 118
-125 215 -228 263 -49 23 -73 27 -172 30 -100 2 -124 -1 -182 -21z"/>
<path d="M16398 1767 c-165 -57 -271 -180 -325 -377 -27 -98 -24 -347 5 -453
34 -125 77 -204 151 -278 97 -97 145 -114 326 -114 135 0 142 1 200 29 115 56
212 183 249 324 l14 51 -52 15 c-110 32 -102 33 -115 -20 -27 -106 -98 -197
-183 -234 -44 -19 -65 -22 -133 -18 -171 9 -272 111 -310 313 -19 97 -19 240
0 327 28 135 85 223 176 273 45 24 69 30 141 33 80 4 93 2 142 -22 76 -37 122
-98 159 -208 6 -16 11 -16 79 3 40 11 74 22 75 23 2 2 -6 29 -17 61 -41 118
-125 215 -228 263 -49 23 -73 27 -172 30 -100 2 -124 -1 -182 -21z"/>
<path d="M110 1166 l0 -606 80 0 80 0 0 272 0 271 114 -6 c63 -4 125 -11 138
-16 66 -25 131 -112 278 -373 l83 -148 98 0 98 0 -110 193 c-124 216 -173 285
-229 326 l-39 28 58 16 c114 32 199 124 221 241 31 165 -40 326 -169 385 -30
13 -88 16 -368 19 l-333 3 0 -605z m616 433 c82 -40 118 -120 95 -208 -17 -64
-44 -95 -102 -121 -46 -19 -75 -23 -251 -27 l-198 -6 0 198 0 198 204 -5 c190
-4 207 -6 252 -29z"/>
<path d="M1200 1165 l0 -605 410 0 410 0 0 70 0 70 -330 0 -330 0 0 205 0 205
300 0 300 0 0 70 0 70 -300 0 -300 0 0 190 0 190 320 0 320 0 0 70 0 70 -400
0 -400 0 0 -605z"/>
<path d="M3130 1700 l0 -70 180 0 180 0 0 -535 0 -535 75 0 75 0 0 535 0 535
180 0 180 0 0 70 0 70 -435 0 -435 0 0 -70z"/>
<path d="M4111 1177 c-112 -325 -206 -598 -208 -604 -4 -10 16 -13 79 -13 l84
0 60 188 59 187 219 0 218 0 64 -184 c35 -101 65 -185 67 -188 3 -2 43 -3 89
-1 l85 3 -221 602 -221 603 -85 0 -85 0 -204 -593z m375 161 c46 -139 84 -254
84 -255 0 -2 -76 -3 -169 -3 l-168 0 69 203 c37 111 74 228 80 259 7 32 14 56
16 54 2 -3 42 -118 88 -258z"/>
<path d="M5033 1333 c4 -361 7 -449 21 -501 34 -132 95 -210 201 -258 52 -24
76 -29 178 -32 145 -5 225 13 295 66 59 45 76 65 108 126 49 93 54 146 54 609
l0 427 -74 0 -75 0 -3 -427 c-5 -478 -7 -499 -74 -573 -45 -50 -105 -70 -208
-70 -94 0 -143 19 -193 71 -67 70 -67 76 -71 562 l-3 437 -80 0 -81 0 5 -437z"/>
<path d="M6120 1166 l0 -606 80 0 80 0 0 272 0 271 114 -6 c63 -4 125 -11 138
-16 66 -25 131 -112 278 -373 l83 -148 181 0 182 0 60 188 59 187 219 0 218 0
64 -184 c35 -101 65 -185 67 -188 3 -2 43 -3 89 -1 l85 3 -221 602 -221 603
-85 0 -85 0 -205 -596 c-113 -328 -208 -598 -211 -600 -4 -2 -53 78 -110 178
-119 209 -173 286 -228 326 l-40 29 58 16 c114 32 199 124 221 241 31 165 -40
326 -169 385 -30 13 -88 16 -368 19 l-333 3 0 -605z m616 433 c82 -40 118
-120 95 -208 -17 -64 -44 -95 -102 -121 -46 -19 -75 -23 -251 -27 l-198 -6 0
198 0 198 204 -5 c190 -4 207 -6 252 -29z m940 -261 c46 -139 84 -254 84 -255
0 -2 -76 -3 -169 -3 l-168 0 69 203 c37 111 74 228 80 259 7 32 14 56 16 54 2
-3 42 -118 88 -258z"/>
<path d="M8210 1165 l0 -605 75 0 75 0 2 458 3 459 272 -456 272 -456 80 -3
81 -3 0 606 0 605 -75 0 -75 0 -2 -456 -3 -456 -273 456 -273 456 -79 0 -80 0
0 -605z"/>
<path d="M9220 1700 l0 -70 180 0 180 0 0 -535 0 -535 75 0 75 0 0 535 0 535
180 0 180 0 0 70 0 70 -435 0 -435 0 0 -70z"/>
<path d="M10220 1165 l0 -605 410 0 410 0 0 70 0 70 -330 0 -330 0 0 205 0
205 300 0 300 0 0 70 0 70 -300 0 -300 0 0 190 0 190 320 0 320 0 0 70 0 70
-400 0 -400 0 0 -605z"/>
<path d="M13660 1165 l0 -605 410 0 410 0 0 70 0 70 -330 0 -330 0 0 205 0
205 300 0 300 0 0 70 0 70 -300 0 -300 0 0 190 0 190 320 0 320 0 0 70 0 70
-400 0 -400 0 0 -605z"/>
<path d="M14555 1753 c8 -22 370 -1057 397 -1135 l20 -58 76 0 77 0 209 593
c115 325 211 598 214 605 3 9 -16 12 -76 12 l-81 0 -168 -510 c-92 -280 -171
-509 -174 -510 -4 0 -12 19 -17 43 -9 33 -139 438 -298 930 l-16 47 -85 0
c-77 0 -84 -2 -78 -17z"/>
<path d="M15700 1165 l0 -605 75 0 75 0 0 605 0 605 -75 0 -75 0 0 -605z"/>
<path d="M17190 1165 l0 -605 75 0 75 0 0 285 0 285 275 0 275 0 0 -285 0
-285 75 0 75 0 0 605 0 605 -75 0 -75 0 0 -250 0 -250 -275 0 -275 0 0 250 0
250 -75 0 -75 0 0 -605z"/>
<path d="M18270 1165 l0 -605 410 0 410 0 0 70 0 70 -330 0 -330 0 0 205 0
205 300 0 300 0 0 70 0 70 -300 0 -300 0 0 190 0 190 320 0 320 0 0 70 0 70
-400 0 -400 0 0 -605z"/>
<path d="M19270 1166 l0 -606 80 0 80 0 0 272 0 271 114 -6 c63 -4 125 -11
138 -16 66 -25 131 -112 278 -373 l83 -148 98 0 98 0 -110 193 c-124 216 -173
285 -229 326 l-39 28 58 16 c114 32 199 124 221 241 31 165 -40 326 -169 385
-30 13 -88 16 -368 19 l-333 3 0 -605z m616 433 c82 -40 118 -120 95 -208 -17
-64 -44 -95 -102 -121 -46 -19 -75 -23 -251 -27 l-198 -6 0 198 0 198 204 -5
c190 -4 207 -6 252 -29z"/>
<path d="M20390 1165 l0 -605 75 0 75 0 0 605 0 605 -75 0 -75 0 0 -605z"/>
<path d="M20871 1177 c-112 -325 -206 -598 -208 -604 -4 -10 16 -13 79 -13
l84 0 60 188 59 187 219 0 218 0 64 -184 c35 -101 65 -185 67 -188 3 -2 43 -3
89 -1 l85 3 -221 602 -221 603 -85 0 -85 0 -204 -593z m375 161 c46 -139 84
-254 84 -255 0 -2 -76 -3 -169 -3 l-168 0 69 203 c37 111 74 228 80 259 7 32
14 56 16 54 2 -3 42 -118 88 -258z"/>
<path d="M11580 990 l0 -70 210 0 210 0 0 70 0 70 -210 0 -210 0 0 -70z"/>
</g>
</svg>
